:version 1.10
:name ASF
:units
  mass 1
  length 1
  angle deg
:documentation
  ASF file generated by Kaydara
:root
  axis xyz
  order  tx ty tz rx ry rz
  position 0 0 0
  orientation 0 0 0
:bonedata
  begin
    id 1
    name RightUpLegDummy
    direction -0.65628 -0.754516 0.00165102
    length 4.76918
    axis 0 0 0 xyz
  end
  begin
    id 2
    name RightUpLeg
    direction -0.145584 -0.923362 0.355256
    length 17.9961
    axis -24.7611 -13.1006 1.78531 xyz
    dof rx ry rz
  end
  begin
    id 3
    name RightLeg
    direction 0.263379 0.172355 -0.949171
    length 13.3386
    axis 89.6202 -21.1929 12.3855 xyz
    dof rx ry rz
  end
  begin
    id 4
    name RightFoot
    direction 0.224283 -0.968777 -0.105675
    length 5.86697
    axis 56.995 -39.6905 17.3365 xyz
    dof rx ry rz
  end
  begin
    id 5
    name RightToes
    direction -0.0806345 -0.9037 0.420506
    length 4.75197
    axis 146.825 -39.7828 17.6019 xyz
    dof rx ry rz
  end
  begin
    id 6
    name SpineDummy
    direction -3.39852e-014 1 9.33296e-014
    length 8.13779
    axis 0 0 0 xyz
  end
  begin
    id 7
    name Spine
    direction -0.156609 0.733703 0.661176
    length 7.14978
    axis 41.2365 5.68757 17.0844 xyz
    dof rx ry rz
  end
  begin
    id 8
    name Spine1
    direction 0 0 0
    length 0
    axis 42.8809 47.8308 -3.36039 xyz
    dof rx ry rz
  end
  begin
    id 9
    name HEadDummy
    direction 0.546431 0.701947 0.456819
    length 3.55512
    axis 42.8809 47.8308 -3.36039 xyz
  end
  begin
    id 10
    name HEad
    direction 0.23444 0.828559 0.508457
    length 7.35827
    axis 51.1864 49.2662 27.4903 xyz
    dof rx ry rz
  end
  begin
    id 11
    name LeftShoulder1Dummy
    direction 0.431183 0.475873 -0.766568
    length 2.49352
    axis 42.8809 47.8308 -3.36039 xyz
  end
  begin
    id 12
    name LeftShoulder1
    direction 0.268187 -0.383402 -0.883786
    length 4.48604
    axis -119.517 0.106469 35.1736 xyz
    dof rx ry rz
  end
  begin
    id 13
    name LeftArm
    direction 0.380567 -0.703221 -0.600541
    length 10.1142
    axis -5.41825 36.2925 7.8293 xyz
    dof rx ry rz
  end
  begin
    id 14
    name LeftForeArm
    direction 0.541071 -0.732356 -0.413396
    length 9.39839
    axis 4.65387 33.7604 7.81644 xyz
    dof rx ry rz
  end
  begin
    id 15
    name LeftHand
    direction 0.847511 -0.389379 -0.360707
    length 3.66142
    axis 7.65593 21.1436 -24.6758 xyz
    dof rx ry rz
  end
  begin
    id 16
    name RightShoulderDummy
    direction -0.692546 0.541855 0.476208
    length 2.49352
    axis 42.8809 47.8308 -3.36039 xyz
  end
  begin
    id 17
    name RightShoulder
    direction -0.870808 -0.316653 0.376065
    length 4.48602
    axis 141.571 51.133 -100.254 xyz
    dof rx ry rz
  end
  begin
    id 18
    name RightArm
    direction 0.366897 -0.87275 0.322015
    length 10.1142
    axis 92.3258 71.2036 138.917 xyz
    dof rx ry rz
  end
  begin
    id 19
    name RightForeArm
    direction 0.702487 -0.694568 0.155197
    length 9.39835
    axis 153.863 41.5092 -176.604 xyz
    dof rx ry rz
  end
  begin
    id 20
    name RightHand
    direction 0.79502 -0.601276 0.0800636
    length 3.66142
    axis 154.247 4.59222 142.9 xyz
    dof rx ry rz
  end
  begin
    id 21
    name LeftUpLegDummy
    direction 0.65628 -0.754516 0.00165102
    length 4.76919
    axis 0 0 0 xyz
  end
  begin
    id 22
    name LeftUpLeg
    direction -0.1277 -0.689368 0.713067
    length 17.9961
    axis -48.3385 -17.8675 0.791927 xyz
    dof rx ry rz
  end
  begin
    id 23
    name LeftLeg
    direction 0.109849 -0.991246 -0.0732378
    length 13.3386
    axis -2.05791 -7.30784 1.72042 xyz
    dof rx ry rz
  end
  begin
    id 24
    name LeftFoot
    direction 0.0448355 -0.272614 0.961078
    length 5.86697
    axis -18.7733 -7.89606 10.2113 xyz
    dof rx ry rz
  end
  begin
    id 25
    name LeftToes
    direction -0.18506 0.293668 0.937823
    length 4.75197
    axis 71.2267 -7.89606 10.2113 xyz
    dof rx ry rz
  end
:hierarchy
  begin
    root RightUpLegDummy SpineDummy LeftUpLegDummy
    RightUpLegDummy RightUpLeg
    RightUpLeg RightLeg
    RightLeg RightFoot
    RightFoot RightToes
    SpineDummy Spine
    Spine Spine1
    Spine1 HEadDummy LeftShoulder1Dummy RightShoulderDummy
    HEadDummy HEad
    LeftShoulder1Dummy LeftShoulder1
    LeftShoulder1 LeftArm
    LeftArm LeftForeArm
    LeftForeArm LeftHand
    RightShoulderDummy RightShoulder
    RightShoulder RightArm
    RightArm RightForeArm
    RightForeArm RightHand
    LeftUpLegDummy LeftUpLeg
    LeftUpLeg LeftLeg
    LeftLeg LeftFoot
    LeftFoot LeftToes
  end

:SAMPLES-PER-SECOND 30
:FULLY-SPECIFIED
:DEGREES
154
root  -4.07603 36.9614 16.8141 -174.313 8.85577 -177.442
RightUpLeg  -18.9013 17.2439 3.58688
RightLeg  -38.3874 -14.3899 -2.25805
RightFoot  22.6453 3.29296 -14.0144
RightToes  -1.27222e-014 -6.36111e-015 6.36111e-015
Spine  -20.8057 -20.1935 -14.5487
Spine1  -0.947596 -14.9056 50.2686
HEad  -19.1948 -9.54445 -13.5176
LeftShoulder1  6.36111e-015 -1.33558e-015 6.49777e-015
LeftArm  15.2906 -11.6425 -12.1466
LeftForeArm  -91.7515 -42.7447 56.615
LeftHand  -4.44041 -13.5702 -18.6758
RightShoulder  -4.77083e-015 -6.36111e-015 -3.18055e-015
RightArm  74.6539 -11.9635 -65.2721
RightForeArm  -108.55 7.19755 -53.6165
RightHand  1.62414 -3.62406 -6.10707
LeftUpLeg  31.3969 35.1693 13.4185
LeftLeg  4.85415 -8.80501 -1.38316
LeftFoot  -8.45327 -1.28161 6.12729
LeftToes  1.27222e-014 -5.20697e-012 1.80337e-011
155
root  -4.66206 37.4821 15.9642 -176.316 3.03033 179.496
RightUpLeg  -19.4313 15.3714 5.0867
RightLeg  -41.1971 -12.5501 -3.45648
RightFoot  22.448 -0.0764975 -9.06827
RightToes  -1.27222e-014 -6.36111e-015 6.36111e-015
Spine  -22.058 -23.1499 -15.0673
Spine1  -2.60066 -17.0915 56.6134
HEad  -14.3883 -8.08308 -16.9228
LeftShoulder1  6.36111e-015 -1.33558e-015 6.49777e-015
LeftArm  13.4968 -2.21706 5.34873
LeftForeArm  -92.8058 -42.4767 58.4588
LeftHand  -4.15296 -11.9964 -16.914
RightShoulder  -4.77083e-015 -6.36111e-015 -3.18055e-015
RightArm  68.0674 1.41768 -76.3924
RightForeArm  -105.353 5.52948 -59.9971
RightHand  0.929522 -4.4921 -0.878702
LeftUpLeg  35.4724 37.3401 14.3544
LeftLeg  5.07865 -15.8985 -2.83469
LeftFoot  0.181212 -0.716154 2.46873
LeftToes  1.27222e-014 -5.20697e-012 1.80337e-011
156
root  -5.25646 37.7222 15.098 -178.268 -1.57809 177.275
RightUpLeg  -18.6492 13.7442 8.10496
RightLeg  -45.9512 -12.4815 -3.56315
RightFoot  23.4562 -1.52527 -7.30826
RightToes  -1.27222e-014 -6.36111e-015 6.36111e-015
Spine  -23.1803 -25.9113 -15.7216
Spine1  -4.30671 -18.7507 62.5015
HEad  -10.0193 -6.9155 -19.3122
LeftShoulder1  6.36111e-015 -1.33558e-015 6.49777e-015
LeftArm  12.8754 1.76282 20.0199
LeftForeArm  -85.5641 -45.3838 59.2416
LeftHand  -3.78009 -10.3027 -15.4616
RightShoulder  -4.77083e-015 -6.36111e-015 -3.18055e-015
RightArm  57.0554 11.3058 -81.6602
RightForeArm  -94.6433 6.32239 -63.9892
RightHand  0.336757 -4.44474 2.60704
LeftUpLeg  39.8877 38.3317 15.5054
LeftLeg  5.59524 -21.0213 -3.95945
LeftFoot  6.08662 1.18692 -3.36319
LeftToes  1.27222e-014 -5.20697e-012 1.80337e-011
157
root  -5.86065 37.6294 14.2104 179.781 -5.14685 176.007
RightUpLeg  -16.9012 11.7379 11.964
RightLeg  -50.9559 -10.177 -5.90224
RightFoot  24.0959 -3.68336 -4.52235
RightToes  -1.27222e-014 -6.36111e-015 6.36111e-015
Spine  -24.2543 -27.1915 -14.9919
Spine1  -6.77455 -19.5492 65.6654
HEad  -5.51477 -7.15478 -20.567
LeftShoulder1  6.36111e-015 -1.33558e-015 6.49777e-015
LeftArm  11.4527 -1.24397 29.3805
LeftForeArm  -70.0155 -52.0795 56.3718
LeftHand  -3.19245 -7.96428 -13.3644
RightShoulder  -4.77083e-015 -6.36111e-015 -3.18055e-015
RightArm  46.628 20.1783 -83.6087
RightForeArm  -81.5134 10.1061 -62.5277
RightHand  0.1606 -4.7415 3.91048
LeftUpLeg  44.1965 38.5651 16.2432
LeftLeg  6.40762 -23.5473 -4.70358
LeftFoot  8.71257 2.84625 -7.51752
LeftToes  1.27222e-014 -5.20697e-012 1.80337e-011
158
root  -6.49107 37.2137 13.2878 177.825 -8.03613 175.199
RightUpLeg  -14.7685 8.62357 15.6993
RightLeg  -56.3866 -6.90598 -10.3973
RightFoot  29.0261 -7.18386 -1.83898
RightToes  -1.27222e-014 -6.36111e-015 6.36111e-015
Spine  -25.903 -27.3948 -13.2517
Spine1  -8.5288 -20.0414 66.4158
HEad  -1.9096 -8.24896 -21.3956
LeftShoulder1  6.36111e-015 -1.33558e-015 6.49777e-015
LeftArm  8.64609 -9.2397 34.4771
LeftForeArm  -42.1857 -57.569 38.1258
LeftHand  -2.3616 -5.22606 -9.93151
RightShoulder  -4.77083e-015 -6.36111e-015 -3.18055e-015
RightArm  37.1555 28.3901 -84.3238
RightForeArm  -65.3879 14.8626 -54.994
RightHand  -0.024691 -4.0333 4.44953
LeftUpLeg  47.7455 38.6101 15.7632
LeftLeg  8.21149 -22.9268 -5.11884
LeftFoot  8.94768 3.23433 -8.48482
LeftToes  1.27222e-014 -5.20697e-012 1.80337e-011
159
root  -7.10401 36.4631 12.3271 176.287 -11.1337 174.469
RightUpLeg  -12.4616 4.67134 19.0109
RightLeg  -61.9485 -6.6121 -12.3146
RightFoot  36.9382 -5.27622 -6.85608
RightToes  -1.27222e-014 -6.36111e-015 6.36111e-015
Spine  -28.6297 -28.0457 -11.976
Spine1  -8.36774 -20.954 67.4398
HEad  0.250404 -9.37804 -22.2351
LeftShoulder1  6.36111e-015 -1.33558e-015 6.49777e-015
LeftArm  7.17841 -21.0798 36.9018
LeftForeArm  -11.4975 -49.2544 10.8631
LeftHand  -1.72576 -3.54041 -7.03213
RightShoulder  -4.77083e-015 -6.36111e-015 -3.18055e-015
RightArm  29.5422 35.9493 -82.7562
RightForeArm  -43.9848 18.7712 -42.4651
RightHand  -0.222754 -1.98911 3.9325
LeftUpLeg  50.1533 38.6143 14.659
LeftLeg  11.9246 -20.4626 -5.50838
LeftFoot  7.90918 3.13737 -8.4501
LeftToes  1.27222e-014 -5.20697e-012 1.80337e-011
160
root  -7.65495 35.3951 11.3305 175.364 -14.918 174.108
RightUpLeg  -10.5244 1.02273 22.2418
RightLeg  -65.8222 -10.3979 -6.95813
RightFoot  37.8963 7.84484 -21.6644
RightToes  -1.27222e-014 -6.36111e-015 6.36111e-015
Spine  -31.9102 -29.2185 -10.9719
Spine1  -8.05699 -22.1078 68.9081
HEad  2.25013 -10.7456 -22.9125
LeftShoulder1  6.36111e-015 -1.33558e-015 6.49777e-015
LeftArm  13.8284 -39.4238 33.4708
LeftForeArm  0.731069 -29.8804 -0.642116
LeftHand  -1.5109 -2.7347 -7.86916
RightShoulder  -4.77083e-015 -6.36111e-015 -3.18055e-015
RightArm  27.4219 44.1459 -76.6727
RightForeArm  -20.3023 17.3167 -25.3315
RightHand  -0.124045 -0.08026 1.11075
LeftUpLeg  52.1525 38.3538 15.2377
LeftLeg  18.063 -18.3268 -6.32918
LeftFoot  6.36822 3.25949 -9.13405
LeftToes  1.27222e-014 -5.20697e-012 1.80337e-011
161
root  -8.20397 34.0773 10.3463 174.54 -19.0942 174.127
RightUpLeg  -9.7646 -1.72612 24.6256
RightLeg  -67.9546 -17.4987 5.42571
RightFoot  25.6029 21.2104 -40.1616
RightToes  -1.27222e-014 -6.36111e-015 6.36111e-015
Spine  -34.3588 -29.8433 -9.7911
Spine1  -9.64344 -22.7126 68.7863
HEad  4.59821 -12.5659 -23.6279
LeftShoulder1  6.36111e-015 -1.33558e-015 6.49777e-015
LeftArm  8.66137 -48.8635 36.6745
LeftForeArm  17.7165 -28.123 -15.4879
LeftHand  -1.4937 -1.94051 -11.6472
RightShoulder  -4.77083e-015 -6.36111e-015 -3.18055e-015
RightArm  36.4579 52.6609 -62.8806
RightForeArm  -2.44456 5.80741 -9.5881
RightHand  -0.145664 1.61007 -1.11756
LeftUpLeg  55.0086 37.9672 18.9149
LeftLeg  26.0323 -16.4633 -7.41217
LeftFoot  5.05077 3.12542 -9.07355
LeftToes  1.27222e-014 -5.20697e-012 1.80337e-011
162
root  -8.53967 32.9591 9.65239 173.358 -23.471 174.924
RightUpLeg  -10.437 -3.37762 25.7431
RightLeg  -67.6466 -23.8205 14.7977
RightFoot  13.4746 23.2267 -47.8712
RightToes  -1.27222e-014 -6.36111e-015 6.36111e-015
Spine  -35.0308 -29.2296 -8.47874
Spine1  -11.6694 -22.5958 67.6415
HEad  5.22341 -14.6059 -24.7734
LeftShoulder1  6.36111e-015 -1.33558e-015 6.49777e-015
LeftArm  0.227147 -50.1914 40.0605
LeftForeArm  33.3083 -33.6622 -27.3671
LeftHand  -1.62222 -1.85117 -14.1392
RightShoulder  -4.77083e-015 -6.36111e-015 -3.18055e-015
RightArm  26.3511 51.3654 -67.3221
RightForeArm  14.2188 5.81326 7.28297
RightHand  -0.971728 3.62687 3.59411
LeftUpLeg  57.16 36.388 23.8574
LeftLeg  33.6905 -13.1133 -6.9506
LeftFoot  4.98463 2.78247 -8.09527
LeftToes  1.27222e-014 -5.20697e-012 1.80337e-011
163
root  -8.31902 32.4573 9.38621 172.268 -28.3689 176.238
RightUpLeg  -11.7323 -4.47366 26.3383
RightLeg  -67.2075 -26.4971 18.031
RightFoot  11.0319 21.854 -46.419
RightToes  -1.27222e-014 -6.36111e-015 6.36111e-015
Spine  -34.2501 -28.6044 -8.53722
Spine1  -11.7445 -21.9557 68.1736
HEad  2.8569 -17.4443 -25.8484
LeftShoulder1  6.36111e-015 -1.33558e-015 6.49777e-015
LeftArm  8.83232 -51.7116 30.4225
LeftForeArm  22.3326 -34.3129 -17.2196
LeftHand  -1.7402 -2.26398 -14.3537
RightShoulder  -4.77083e-015 -6.36111e-015 -3.18055e-015
RightArm  33.6837 49.545 -65.2363
RightForeArm  19.8076 5.59687 12.9464
RightHand  -1.96373 6.36518 12.0502
LeftUpLeg  55.6736 33.3714 25.9389
LeftLeg  39.0241 -8.55317 -3.8267
LeftFoot  4.79655 2.7085 -7.92078
LeftToes  1.27222e-014 -5.20697e-012 1.80337e-011
164
root  -7.478 32.7025 9.46257 172.238 -33.8345 176.934
RightUpLeg  -12.6209 -5.32419 26.2509
RightLeg  -72.8786 -26.0988 21.8445
RightFoot  15.0714 22.1936 -45.325
RightToes  -1.27222e-014 -6.36111e-015 6.36111e-015
Spine  -32.7545 -28.6347 -10.5414
Spine1  -10.5278 -20.8763 70.1216
HEad  -0.0794608 -21.7858 -25.6214
LeftShoulder1  6.36111e-015 -1.33558e-015 6.49777e-015
LeftArm  23.886 -49.764 12.5532
LeftForeArm  0.180884 -27.4552 -0.859153
LeftHand  -2.27873 -4.48187 -13.6449
RightShoulder  -4.77083e-015 -6.36111e-015 -3.18055e-015
RightArm  51.6117 42.5321 -60.7217
RightForeArm  14.5101 8.386 10.4547
RightHand  -2.08651 6.99142 13.2735
LeftUpLeg  50.7967 30.1561 23.3376
LeftLeg  40.9836 -4.65887 0.142777
LeftFoot  1.57186 2.57684 -8.2525
LeftToes  1.27222e-014 -5.20697e-012 1.80337e-011
165
root  -6.17104 33.5803 9.79298 173.704 -39.4309 176.175
RightUpLeg  -12.4165 -5.55181 24.7806
RightLeg  -82.2431 -21.7144 23.6606
RightFoot  22.7304 24.3643 -45.8569
RightToes  -1.27222e-014 -6.36111e-015 6.36111e-015
Spine  -30.2986 -28.7243 -12.9315
Spine1  -10.1208 -19.7688 70.6908
HEad  -0.913593 -26.0603 -24.2186
LeftShoulder1  6.36111e-015 -1.33558e-015 6.49777e-015
LeftArm  23.849 -40.3673 2.64514
LeftForeArm  -6.40013 -29.7382 1.26562
LeftHand  -3.14013 -7.75657 -13.8508
RightShoulder  -4.77083e-015 -6.36111e-015 -3.18055e-015
RightArm  80.2858 24.7832 -46.006
RightForeArm  -2.14028 -2.93559 -1.58625
RightHand  -1.33405 4.78861 5.89239
LeftUpLeg  44.425 27.3812 17.6459
LeftLeg  39.6226 -1.50289 3.48945
LeftFoot  -4.72074 2.27623 -8.91236
LeftToes  1.27222e-014 -5.20697e-012 1.80337e-011
166
root  -4.66683 34.6584 10.3165 176.609 -44.0805 173.527
RightUpLeg  -11.757 -3.46984 21.509
RightLeg  -87.1816 -16.3604 16.0908
RightFoot  33.4373 22.412 -39.6565
RightToes  -1.27222e-014 -6.36111e-015 6.36111e-015
Spine  -26.9022 -28.4295 -14.8814
Spine1  -9.69019 -18.9982 69.1704
HEad  -0.702365 -27.8753 -23.888
LeftShoulder1  6.36111e-015 -1.33558e-015 6.49777e-015
LeftArm  26.4893 -30.8435 -9.38047
LeftForeArm  -8.51863 -31.0669 2.16108
LeftHand  -3.74277 -10.101 -14.6574
RightShoulder  -4.77083e-015 -6.36111e-015 -3.18055e-015
RightArm  84.5026 3.21897 -45.2967
RightForeArm  -11.965 -12.3206 -6.18704
RightHand  -1.25686 7.80574 -1.77463
LeftUpLeg  37.7458 25.5212 11.805
LeftLeg  35.914 2.59917 6.91713
LeftFoot  -9.33669 2.10498 -9.8236
LeftToes  1.27222e-014 -5.20697e-012 1.80337e-011
167
root  -3.25245 35.4078 10.8964 -179.885 -45.9265 169.564
RightUpLeg  -11.8183 3.33024 17.3454
RightLeg  -84.1798 -14.3838 6.17903
RightFoot  39.3182 12.4303 -26.8356
RightToes  -1.27222e-014 -6.36111e-015 6.36111e-015
Spine  -24.1219 -26.8627 -16.2636
Spine1  -6.40381 -18.1042 64.7813
HEad  -2.61841 -27.8309 -25.1968
LeftShoulder1  6.36111e-015 -1.33558e-015 6.49777e-015
LeftArm  24.6352 -19.0075 -15.3701
LeftForeArm  -13.6497 -32.3374 3.86928
LeftHand  -4.15869 -11.7384 -14.7795
RightShoulder  -4.77083e-015 -6.36111e-015 -3.18055e-015
RightArm  77.7036 -14.558 -49.1264
RightForeArm  -20.37 -15.8196 -6.52991
RightHand  -2.05299 11.9653 -2.45818
LeftUpLeg  32.6401 24.9195 8.25181
LeftLeg  30.6762 7.31425 9.37708
LeftFoot  -9.134 2.07392 -9.59451
LeftToes  1.27222e-014 -5.20697e-012 1.80337e-011
